# xmcd
#
# Track frame offsets:
#	182
#	19282
#	38742
#	55987
#	72197
#	95000
#	110200
#	129222
#	148050
#	168652
#	188475
#
# Disc length: 2747 seconds
#
# Revision: 0
# Processed by: cddbd v1.4PL0 Copyright (c) Steve Scherf et al.
# Submitted via: EasyCDDAExtractor 5.0.5.1
#
DISCID=9d0ab90b
DTITLE=Pablo Herrera - Más Arriba
DYEAR=1900
DGENRE=Blues
TTITLE0=Dale una oportunidad
TTITLE1=Sin darme cuenta
TTITLE2=Cada nuevo sol
TTITLE3=Ale espérame
TTITLE4=Vueltas en un subterráneo
TTITLE5=Te prometo
TTITLE6=Amor, amor
TTITLE7=Más arriba
TTITLE8=Entre el cielo y el mar
TTITLE9=Alguna vez
TTITLE10=Difícil amarse
EXTD=
EXTT0=
EXTT1=
EXTT2=
EXTT3=
EXTT4=
EXTT5=
EXTT6=
EXTT7=
EXTT8=
EXTT9=
EXTT10=
PLAYORDER=
